<svg width="28" height="29" viewBox="0 0 28 29" fill="none" xmlns="http://www.w3.org/2000/svg">
<path d="M5.39 21.895C6.58 20.9525 7.91 20.2094 9.38 19.6656C10.85 19.1219 12.39 18.85 14 18.85C15.61 18.85 17.15 19.1219 18.62 19.6656C20.09 20.2094 21.42 20.9525 22.61 21.895C23.4267 20.9042 24.0625 19.7804 24.5175 18.5237C24.9725 17.2671 25.2 15.9258 25.2 14.5C25.2 11.2858 24.1092 8.54896 21.9275 6.28937C19.7458 4.02979 17.1033 2.9 14 2.9C10.8967 2.9 8.25417 4.02979 6.0725 6.28937C3.89083 8.54896 2.8 11.2858 2.8 14.5C2.8 15.9258 3.0275 17.2671 3.4825 18.5237C3.9375 19.7804 4.57333 20.9042 5.39 21.895ZM14 15.95C12.6233 15.95 11.4625 15.4606 10.5175 14.4819C9.5725 13.5031 9.1 12.3008 9.1 10.875C9.1 9.44917 9.5725 8.24687 10.5175 7.26812C11.4625 6.28937 12.6233 5.8 14 5.8C15.3767 5.8 16.5375 6.28937 17.4825 7.26812C18.4275 8.24687 18.9 9.44917 18.9 10.875C18.9 12.3008 18.4275 13.5031 17.4825 14.4819C16.5375 15.4606 15.3767 15.95 14 15.95ZM14 29C12.0633 29 10.2433 28.6194 8.54 27.8581C6.83667 27.0969 5.355 26.0637 4.095 24.7587C2.835 23.4537 1.8375 21.9192 1.1025 20.155C0.3675 18.3908 0 16.5058 0 14.5C0 12.4942 0.3675 10.6092 1.1025 8.845C1.8375 7.08083 2.835 5.54625 4.095 4.24125C5.355 2.93625 6.83667 1.90312 8.54 1.14187C10.2433 0.380625 12.0633 0 14 0C15.9367 0 17.7567 0.380625 19.46 1.14187C21.1633 1.90312 22.645 2.93625 23.905 4.24125C25.165 5.54625 26.1625 7.08083 26.8975 8.845C27.6325 10.6092 28 12.4942 28 14.5C28 16.5058 27.6325 18.3908 26.8975 20.155C26.1625 21.9192 25.165 23.4537 23.905 24.7587C22.645 26.0637 21.1633 27.0969 19.46 27.8581C17.7567 28.6194 15.9367 29 14 29ZM14 26.1C15.2367 26.1 16.4033 25.9127 17.5 25.5381C18.5967 25.1635 19.6 24.6258 20.51 23.925C19.6 23.2242 18.5967 22.6865 17.5 22.3119C16.4033 21.9373 15.2367 21.75 14 21.75C12.7633 21.75 11.5967 21.9373 10.5 22.3119C9.40333 22.6865 8.4 23.2242 7.49 23.925C8.4 24.6258 9.40333 25.1635 10.5 25.5381C11.5967 25.9127 12.7633 26.1 14 26.1ZM14 13.05C14.6067 13.05 15.1083 12.8446 15.505 12.4337C15.9017 12.0229 16.1 11.5033 16.1 10.875C16.1 10.2467 15.9017 9.72708 15.505 9.31625C15.1083 8.90542 14.6067 8.7 14 8.7C13.3933 8.7 12.8917 8.90542 12.495 9.31625C12.0983 9.72708 11.9 10.2467 11.9 10.875C11.9 11.5033 12.0983 12.0229 12.495 12.4337C12.8917 12.8446 13.3933 13.05 14 13.05Z" fill="#F37023"/>
</svg>
