<svg width="1584" height="370" viewBox="0 0 1584 370" fill="none" xmlns="http://www.w3.org/2000/svg">
<path d="M377.914 116.414H359.736C357.83 116.414 356.094 117.256 354.528 118.957C352.962 120.658 352.162 122.502 352.162 124.507V278.5C352.162 280.506 352.945 282.332 354.528 283.979C356.094 285.626 357.83 286.45 359.736 286.45H377.676C379.582 286.45 381.335 285.626 382.952 283.979C384.569 282.332 385.369 280.506 385.369 278.5V124.507C385.369 122.502 384.603 120.658 383.071 118.957C381.539 117.256 379.82 116.414 377.914 116.414Z" fill="#0D4C9C"/>
<path d="M570.785 122.358C565.611 118.402 561.373 116.414 558.071 116.414H440.461C438.146 116.414 435.627 117.882 432.887 120.783C430.163 123.701 428.785 126.369 428.785 128.804V274.185C428.785 276.62 430.146 279.27 432.887 282.153C435.61 285.017 438.146 286.468 440.461 286.468H558.31C561.612 286.468 565.833 284.516 570.956 280.595C576.079 276.674 580.589 272.091 584.47 266.827C588.35 261.563 590.308 257.23 590.308 253.846V149.322C590.308 145.92 588.35 141.588 584.419 136.27C580.487 130.97 575.943 126.333 570.768 122.376L570.785 122.358ZM557.135 247.651C557.135 252.468 553.425 256.371 548.846 256.371H470.28C465.702 256.371 461.991 252.468 461.991 247.651V155.338C461.991 150.522 465.702 146.619 470.28 146.619H548.846C553.425 146.619 557.135 150.522 557.135 155.338V247.651Z" fill="#0D4C9C"/>
<path d="M1119.39 116.467H1010.59C1007.29 116.467 1003.15 118.365 998.183 122.143C993.213 125.92 988.856 130.397 985.095 135.517C981.333 140.656 979.444 144.917 979.444 148.301V254.651C979.444 255.206 979.512 255.797 979.614 256.406H863.705C859.127 256.406 855.417 252.503 855.417 247.686V124.542C855.417 122.537 854.617 120.692 853 118.992C851.383 117.291 849.63 116.449 847.723 116.449H773.055C772.919 116.449 772.783 116.396 772.63 116.396H643.854C641.539 116.396 639.02 117.864 636.28 120.764C633.556 123.682 632.178 126.35 632.178 128.785V274.167C632.178 276.602 633.539 279.251 636.28 282.134C639.003 284.999 641.539 286.449 643.854 286.449H772.63C774.536 286.449 776.289 285.625 777.906 283.978C779.523 282.331 780.323 280.505 780.323 278.499V264.337C780.323 262.332 779.523 260.506 777.906 258.859C776.289 257.211 774.536 256.37 772.63 256.37H673.673C669.095 256.37 665.384 252.467 665.384 247.651V226.273C665.384 221.457 669.095 217.554 673.673 217.554H772.749C774.74 217.536 776.493 216.694 778.025 215.047C779.557 213.4 780.323 211.52 780.323 209.443V192.613C780.323 190.447 779.574 188.567 778.093 187.009C776.612 185.452 774.825 184.664 772.749 184.664H682.354L673.656 184.682C669.078 184.682 665.367 180.779 665.367 175.962V155.355C665.367 150.539 669.078 146.636 673.656 146.636H813.904C818.465 146.636 822.176 150.521 822.193 155.337V273.468C822.193 275.903 823.674 278.696 826.652 281.83C829.631 284.963 832.269 286.52 834.601 286.52H945.88C946.373 286.52 946.867 286.449 947.343 286.341H1008.82C1009.42 286.449 1010 286.52 1010.56 286.52H1119.35C1121.26 286.52 1122.99 285.697 1124.56 284.05C1126.13 282.402 1126.93 280.576 1126.93 278.571V264.409C1126.93 262.404 1126.14 260.577 1124.56 258.93C1122.99 257.283 1121.26 256.441 1119.35 256.441H1020.77C1016.19 256.441 1012.48 252.538 1012.48 247.722V155.409C1012.48 150.592 1016.19 146.689 1020.77 146.689H1119.35C1121.26 146.689 1122.99 145.848 1124.56 144.147C1126.13 142.446 1126.93 140.602 1126.93 138.597V124.56C1126.93 122.555 1126.14 120.71 1124.56 119.01C1122.99 117.309 1121.26 116.467 1119.35 116.467H1119.39Z" fill="#0D4C9C"/>
<path d="M1302.48 122.142C1297.47 118.364 1293.32 116.467 1290 116.467H1190.64C1187.33 116.467 1183.2 118.364 1178.23 122.142C1173.26 125.92 1168.9 130.396 1165.14 135.517C1161.38 140.655 1159.49 144.916 1159.49 148.3V254.651C1159.49 258.052 1161.36 262.313 1165.14 267.434C1168.9 272.573 1173.26 277.031 1178.23 280.808C1183.2 284.586 1187.32 286.484 1190.64 286.484H1290C1293.3 286.484 1297.46 284.586 1302.48 280.808C1307.48 277.031 1311.86 272.573 1315.63 267.434C1319.4 262.296 1321.29 258.034 1321.29 254.651V148.3C1321.29 144.898 1319.41 140.637 1315.63 135.517C1311.87 130.378 1307.48 125.92 1302.48 122.142ZM1288.08 247.704C1288.08 252.52 1284.37 256.423 1279.79 256.423H1200.85C1196.27 256.423 1192.56 252.52 1192.56 247.704V155.39C1192.56 150.574 1196.27 146.671 1200.85 146.671H1279.79C1284.37 146.671 1288.08 150.574 1288.08 155.39V247.704Z" fill="#0D4C9C"/>
<path d="M1577.13 134.282C1573.91 130.11 1570.22 126.351 1566.15 123.092C1560.59 118.652 1556.01 116.45 1552.43 116.45H1488.42C1486.02 116.45 1483.21 117.757 1479.98 120.371C1476.74 122.985 1474.48 125.634 1473.15 128.338C1471.83 125.724 1469.56 123.092 1466.33 120.442C1463.11 117.792 1460.29 116.468 1457.89 116.468H1393.38C1389.8 116.468 1385.26 118.67 1379.71 123.074C1375.64 126.315 1371.95 130.057 1368.73 134.228C1364.33 139.94 1362.11 144.631 1362.11 148.301V278.536C1362.11 280.541 1362.9 282.367 1364.48 284.014C1366.04 285.661 1367.78 286.485 1369.69 286.485H1387.63C1389.53 286.485 1391.29 285.661 1392.9 284.014C1394.52 282.367 1395.32 280.541 1395.32 278.536V155.391C1395.32 150.575 1399.03 146.672 1403.61 146.672H1446.26C1450.84 146.672 1454.55 150.575 1454.55 155.391V278.536C1454.55 280.541 1455.35 282.367 1456.97 284.014C1458.58 285.661 1460.34 286.485 1462.24 286.485H1483.59C1485.58 286.485 1487.33 285.679 1488.86 284.068C1490.39 282.457 1491.16 280.612 1491.16 278.518V155.373C1491.16 150.557 1494.87 146.654 1499.45 146.654H1542.24C1546.82 146.654 1550.53 150.557 1550.53 155.373V278.518C1550.53 280.523 1551.31 282.349 1552.89 283.996C1554.46 285.643 1556.2 286.467 1558.1 286.467H1576.04C1578.03 286.467 1579.8 285.643 1581.39 283.996C1582.95 282.349 1583.73 280.523 1583.73 278.518V148.283C1583.73 144.631 1581.54 139.958 1577.18 134.264L1577.13 134.282Z" fill="#0D4C9C"/>
<path fill-rule="evenodd" clip-rule="evenodd" d="M154.729 55.1331C154.729 24.6875 178.07 0 206.856 0C235.641 0 259 24.6875 259 55.1331C259 85.5786 235.658 110.266 206.873 110.266C201.65 110.266 196.614 109.456 191.868 107.945C169.632 132.039 137.699 146.704 104.286 156.456C79.2939 163.744 53.5026 168.296 30.3141 172.021L16.9591 174.828C14.4072 175.35 11.8553 174.684 9.33736 172.831C6.81947 170.977 5.30533 168.692 4.81196 165.993L0.541753 142.637L0.167472 140.55C-0.325899 137.851 0.269548 135.17 1.97083 132.507C3.51899 130.077 5.45845 128.584 7.72115 127.936C8.21452 127.828 8.70789 127.738 9.2523 127.702C12.1362 127.324 15.0443 126.949 17.9709 126.572C50.2809 122.409 84.8426 117.955 113.983 105.498C130.962 98.2283 146.103 88.2597 157.893 74.0626C155.851 68.1606 154.729 61.7908 154.729 55.1331ZM220.262 75.3042C220.347 75.2502 220.432 75.1782 220.517 75.1062C221.997 73.9726 223.341 72.6591 224.532 71.2016C224.558 71.1656 224.587 71.1341 224.617 71.1026C224.647 71.0711 224.677 71.0396 224.702 71.0036C224.974 70.6618 225.23 70.3019 225.485 69.942C225.57 69.8161 225.655 69.6946 225.74 69.5731C225.825 69.4517 225.91 69.3302 225.995 69.2043C226.155 68.9699 226.297 68.7261 226.441 68.4797C226.496 68.3856 226.551 68.2911 226.608 68.1966C226.693 68.0437 226.782 67.8908 226.871 67.738C226.961 67.585 227.05 67.4319 227.135 67.2789C227.305 66.9551 227.475 66.6311 227.628 66.2893C227.799 65.9294 227.952 65.5875 228.105 65.2276C228.241 64.9037 228.377 64.5619 228.496 64.238C228.598 63.9741 228.685 63.7102 228.772 63.4464C228.816 63.3144 228.859 63.1824 228.904 63.0504C229.006 62.7265 229.109 62.4026 229.194 62.0787C229.313 61.6469 229.415 61.215 229.517 60.7652C229.543 60.6406 229.572 60.5187 229.6 60.3984C229.645 60.2059 229.69 60.0177 229.721 59.8295C229.797 59.3814 229.859 58.9191 229.92 58.4679L229.942 58.3C229.952 58.2255 229.964 58.1494 229.976 58.0721C230.003 57.8884 230.032 57.6983 230.044 57.5083C230.129 56.7525 230.163 55.9608 230.163 55.1691V55.1331C230.163 54.1434 230.095 53.1898 229.993 52.2541C229.976 52.1101 229.955 51.9662 229.934 51.8222C229.912 51.6783 229.891 51.5343 229.874 51.3904C229.772 50.7426 229.653 50.0768 229.517 49.447C229.449 49.1414 229.381 48.835 229.296 48.5294C229.126 47.8996 228.921 47.2698 228.717 46.658C228.666 46.532 228.624 46.4016 228.581 46.2711C228.539 46.1407 228.496 46.0102 228.445 45.8843C228.122 45.0565 227.782 44.2288 227.373 43.4371C226.965 42.6274 226.489 41.8357 225.995 41.0799C225.936 40.99 225.872 40.9045 225.808 40.8191C225.744 40.7336 225.68 40.6481 225.621 40.5581C225.23 40.0003 224.821 39.4425 224.379 38.9207C224.266 38.7767 224.152 38.6487 224.039 38.5207C223.982 38.4568 223.925 38.3928 223.869 38.3269C223.426 37.805 222.95 37.3372 222.474 36.8694C222.32 36.7074 222.167 36.5455 221.997 36.4015C221.351 35.8257 220.687 35.2499 219.973 34.7461C216.23 32.047 211.704 30.4636 206.839 30.4636C193.96 30.4636 183.514 41.5118 183.514 55.1331C183.514 68.7544 193.96 79.8026 206.839 79.8026C208.285 79.8026 209.68 79.6587 211.041 79.3888C211.67 79.2808 212.266 79.1189 212.861 78.9569C212.946 78.9389 213.048 78.9209 213.134 78.8849C213.695 78.723 214.239 78.5431 214.784 78.3271C214.843 78.3001 214.903 78.2776 214.962 78.2552C215.022 78.2327 215.082 78.2102 215.141 78.1832C215.668 77.9673 216.179 77.7513 216.672 77.4994C216.74 77.4634 216.804 77.4319 216.868 77.4005C216.932 77.369 216.995 77.3375 217.063 77.3015C217.557 77.0496 218.033 76.7797 218.51 76.4918C218.569 76.4558 218.629 76.4153 218.688 76.3748C218.748 76.3343 218.807 76.2938 218.867 76.2578C219.343 75.952 219.82 75.646 220.262 75.3042Z" fill="#F37023"/>
<path d="M19.2925 187.555L241.944 142.171C244.478 141.669 247.013 142.274 249.581 143.988C252.132 145.702 253.652 147.865 254.142 150.462L258.839 175.265C259.329 177.862 258.704 180.423 256.947 182.933C255.19 185.443 253.044 186.949 250.51 187.451L27.858 232.835C25.3238 233.337 22.8066 232.696 20.2893 230.913C17.7889 229.13 16.2853 226.932 15.7954 224.336L11.1663 199.861C10.6764 197.265 11.2677 194.686 12.9571 192.124C14.6466 189.562 16.7584 188.039 19.2925 187.537V187.555Z" fill="#F37023"/>
<path fill-rule="evenodd" clip-rule="evenodd" d="M269.325 226.365L269.322 226.352C268.33 220.973 267.49 216.418 266.305 209.419C265.849 206.707 264.059 204.267 260.817 202.301C257.593 200.316 254.182 199.606 250.654 200.207C201.928 210.912 137.957 225.241 97.1672 262.091C91.4437 259.724 85.2307 258.431 78.7306 258.431C50.164 258.431 27 283.41 27 314.216C27 345.021 50.164 370 78.7306 370C107.297 370 130.461 345.021 130.461 314.216C130.461 308.499 129.651 302.964 128.165 297.775C159.311 265.963 209.168 256.391 254.573 247.674C256.67 247.272 258.758 246.871 260.834 246.469C263.856 246.087 266.372 244.74 268.449 242.355C270.525 239.97 271.353 237.457 270.863 234.799V234.763C270.283 231.563 269.787 228.874 269.325 226.365ZM78.7055 339.158C70.6724 339.155 63.5848 334.732 59.4498 328.016C59.1121 327.47 58.7913 326.905 58.4874 326.323C58.4371 326.223 58.3868 326.119 58.3365 326.015L58.3345 326.011C58.2842 325.907 58.2339 325.803 58.1835 325.704C57.9641 325.249 57.7615 324.775 57.5589 324.302C57.5166 324.193 57.4744 324.088 57.4322 323.983C57.39 323.879 57.3478 323.774 57.3056 323.665C57.0524 323.009 56.816 322.336 56.6134 321.644C56.6134 321.607 56.5965 321.553 56.5796 321.516C56.3939 320.843 56.2251 320.169 56.09 319.477C56.0456 319.286 56.0142 319.081 55.9844 318.886L55.9718 318.804C55.8874 318.276 55.803 317.729 55.7355 317.183C55.7017 316.947 55.6848 316.728 55.6679 316.491C55.6004 315.745 55.5666 314.998 55.5666 314.234V314.125C55.5666 313.342 55.6004 312.559 55.6679 311.794C55.6789 311.616 55.7042 311.446 55.7298 311.274C55.7436 311.182 55.7574 311.088 55.7692 310.993C55.8368 310.465 55.9043 309.955 55.9887 309.445C56.0312 309.186 56.0856 308.939 56.1419 308.683L56.1744 308.535C56.2757 308.08 56.377 307.625 56.4952 307.17C56.5796 306.86 56.664 306.551 56.7653 306.259C56.9004 305.822 57.0355 305.404 57.2043 304.985C57.2634 304.839 57.3183 304.689 57.3732 304.539C57.428 304.389 57.483 304.238 57.542 304.093C57.7108 303.674 57.8964 303.274 58.0821 302.873C58.1327 302.771 58.1811 302.666 58.2296 302.56C58.3106 302.384 58.3924 302.206 58.4874 302.035C58.7069 301.617 58.9433 301.216 59.1797 300.816C59.2087 300.765 59.2378 300.713 59.2671 300.661C59.3737 300.471 59.4825 300.277 59.6017 300.106C59.9225 299.596 60.2602 299.122 60.6147 298.649C60.6654 298.585 60.7118 298.517 60.7582 298.449C60.8047 298.381 60.8511 298.312 60.9018 298.249C61.3238 297.702 61.7797 297.174 62.2355 296.665C62.4213 296.464 62.6239 296.264 62.8265 296.064L62.8507 296.039C63.1473 295.737 63.4598 295.419 63.7719 295.135C64.0083 294.917 64.2447 294.716 64.4979 294.516C64.8018 294.261 65.1226 294.006 65.4434 293.752C65.7135 293.551 65.9668 293.369 66.2369 293.187C66.5577 292.969 66.8785 292.75 67.2161 292.55C67.5027 292.368 67.7893 292.204 68.0759 292.041L68.0772 292.04C68.2457 291.949 68.4184 291.858 68.5911 291.768L68.592 291.767C68.7651 291.676 68.9382 291.585 69.1071 291.494C69.179 291.459 69.2501 291.425 69.3206 291.391C69.5477 291.28 69.7701 291.172 70.0019 291.075C70.3733 290.911 70.7448 290.766 71.1331 290.638C71.1771 290.621 71.2216 290.604 71.2663 290.587C71.3031 290.573 71.3401 290.558 71.3771 290.543C71.5888 290.461 71.8043 290.376 72.011 290.311C72.4669 290.165 72.9396 290.037 73.3954 289.928C75.1007 289.491 76.8734 289.236 78.6968 289.236C91.4775 289.236 101.844 300.415 101.844 314.197C101.844 327.977 91.4823 339.153 78.7055 339.158Z" fill="#F37023"/>
</svg>
